Patient4_TMGait_0pt7_01_left_19_GRF.mot
version=1
nRows=58
nColumns=19
inDegrees=no
endheader
time	F1x	F1y	F1z	M1x	M1y	M1z	F2x	F2y	F2z	M2x	M2y	M2z	EC1x	EC1y	EC1z	EC2x	EC2y	EC2z
21.8	12.5982	-14.8641	3.7252	2.191	0.96738	-26.7075	-14.0868	717.9111	-67.4115	259.4844	82.2697	795.1283	-0.0592	0.0182	-0.0073	-0.0462	0.0165	0.9585
21.8116	8.4025	-8.7597	2.6999	1.0631	0.44457	-16.5978	-17.4915	727.9531	-65.1882	263.473	80.1461	801.2784	-0.0592	0.0182	-0.0073	-0.0462	0.0165	0.9585
21.8231	4.8873	-3.6044	1.7586	0.11514	0.066599	-8.0701	-19.9994	739.6819	-63.2275	267.9868	78.0837	808.6635	-0.0592	0.0182	-0.0073	-0.0462	0.0165	0.9585
21.8347	2.1906	0.33978	0.9974	-0.61408	-0.19482	-1.5203	-21.439	752.3931	-61.6761	272.7674	76.1985	816.71	-0.0592	0.0182	-0.0073	-0.0462	0.0165	0.9585
21.8463	0.35795	3.0626	0.44479	-1.1249	-0.35509	3.0076	-21.8057	765.2329	-60.6359	277.5178	74.5858	824.6175	-0.0592	0.0182	-0.0073	-0.0462	0.0165	0.9585
21.8579	-0.80721	4.7516	0.089265	-1.4455	-0.46188	5.8418	-21.194	777.3493	-60.0558	281.9473	73.2029	831.5498	-0.0592	0.0182	-0.0073	-0.0462	0.0165	0.9585
21.8694	-1.416	5.6166	-0.11273	-1.6082	-0.51886	7.2958	-19.7072	787.9181	-59.8489	285.7759	71.9678	836.6678	-0.0592	0.0182	-0.0073	-0.0462	0.0165	0.9585
21.881	-1.7031	5.8802	-0.188	-1.6483	-0.57233	7.7816	-17.471	796.1941	-59.8856	288.7516	70.7566	839.2317	-0.0592	0.0182	-0.0073	-0.0462	0.0165	0.9585
21.8926	-1.7681	5.6787	-0.18432	-1.5854	-0.61913	7.5222	-14.582	801.5604	-60.029	290.6658	69.4343	838.6292	-0.0592	0.0182	-0.0073	-0.0462	0.0165	0.9585
21.9041	-1.7801	5.1158	-0.11925	-1.4244	-0.69813	6.7596	-11.1387	803.5861	-60.1998	291.3745	67.9285	834.4498	-0.0592	0.0182	-0.0073	-0.0462	0.0165	0.9585
21.9157	-1.7633	4.1897	-0.026845	-1.1478	-0.79545	5.5221	-7.2229	802.0631	-60.2986	290.8162	66.157	826.5157	-0.0592	0.0182	-0.0073	-0.0462	0.0165	0.9585
21.9273	-1.806	2.9063	0.081889	-0.73733	-0.9251	3.8701	-2.9207	797.0203	-60.3321	289.0107	64.1569	814.9363	-0.0592	0.0182	-0.0073	-0.0462	0.0165	0.9585
21.9389	-1.8532	1.2113	0.18433	-0.16984	-1.052	1.7235	1.6505	788.6807	-60.2775	286.0537	61.9518	800.0197	-0.0592	0.0182	-0.0073	-0.0462	0.0165	0.9585
21.9504	-1.915	-0.86606	0.26066	0.55024	-1.1534	-0.85834	6.3547	777.5261	-60.1957	282.1247	59.6578	782.3615	-0.0592	0.0182	-0.0073	-0.0462	0.0165	0.9585
21.962	-1.8641	-3.255	0.28671	1.3904	-1.1629	-3.8132	11.0473	764.2634	-60.107	277.487	57.3593	762.7705	-0.0592	0.0182	-0.0073	-0.0462	0.0165	0.9585
21.9736	-1.6116	-5.6711	0.21909	2.2464	-0.99161	-6.7749	15.5606	749.8698	-60.0761	272.4921	55.1909	742.3311	-0.0592	0.0182	-0.0073	-0.0462	0.0165	0.9585
21.9851	-0.9603	-7.6157	0.024608	2.9305	-0.52408	-9.1651	19.7495	735.4456	-60.1567	267.532	53.2735	722.2144	-0.0592	0.0182	-0.0073	-0.0462	0.0165	0.9585
21.9967	0.25147	-8.2058	-0.36207	3.1216	0.38305	-9.8852	23.4795	722.0353	-60.4032	262.9728	51.7169	703.5276	-0.0592	0.0182	-0.0073	-0.0462	0.0165	0.9585
22.0083	2.2619	-6.1722	-0.98139	2.3589	1.8682	-7.4217	26.6963	710.4847	-60.8515	259.1058	50.5807	687.1435	-0.0592	0.0182	-0.0073	-0.0462	0.0165	0.9585
22.0199	5.1923	0.22353	-1.8897	0.020543	4.0445	0.34188	29.3677	701.3083	-61.4891	256.102	49.8568	673.5931	-0.0592	0.0182	-0.0073	-0.0462	0.0165	0.9585
22.0314	9.1195	13.0433	-3.0815	-4.6326	6.9297	15.875	31.5172	694.6041	-62.2693	253.9807	49.4902	662.9879	-0.0592	0.0182	-0.0073	-0.0462	0.0165	0.9585
22.043	13.8172	34.4745	-4.5164	-12.3754	10.3843	41.845	33.1854	690.0105	-63.0511	252.5976	49.3303	654.9886	-0.0592	0.0182	-0.0073	-0.0462	0.0165	0.9585
22.0546	18.7533	66.2819	-6.0229	-23.828	13.993	80.3818	34.4415	686.7019	-63.6537	251.6445	49.1808	648.8072	-0.0592	0.0182	-0.0073	-0.0462	0.0165	0.9585
22.0661	22.8119	109.0613	-7.2918	-39.1781	16.9539	132.2521	35.3366	683.4534	-63.8054	250.6772	48.7679	643.2904	-0.0592	0.0182	-0.0073	-0.0462	0.0165	0.9585
22.0777	24.2323	161.0081	-7.7716	-57.7546	17.95	195.2931	35.8971	678.6918	-63.2495	249.1342	47.8433	636.9328	-0.0592	0.0182	-0.0073	-0.0462	0.0165	0.9585
22.0893	21.125	217.2276	-6.6705	-77.7675	15.3627	263.6532	36.1694	670.7716	-61.7217	246.4351	46.1441	628.1302	-0.0592	0.0182	-0.0073	-0.0462	0.0165	0.9585
22.1009	13.5756	270.2675	-3.0746	-96.5151	8.1597	328.2871	36.2435	658.3312	-59.0807	242.1031	43.5068	615.5047	-0.0592	0.0182	-0.0073	-0.0462	0.0165	0.9585
22.1124	4.4358	313.2701	3.3554	-111.5623	-2.9237	380.6428	36.2836	640.5403	-55.3708	235.8455	39.9185	598.1327	-0.0592	0.0182	-0.0073	-0.0462	0.0165	0.9585
22.124	-4.1311	343.782	11.0699	-122.1056	-15.2677	417.3774	36.4822	617.2475	-50.8858	227.5907	35.5761	575.7266	-0.0592	0.0182	-0.0073	-0.0462	0.0165	0.9585
22.1356	-10.9693	363.611	18.8961	-128.8591	-27.0203	440.4721	37.0006	588.7945	-46.0992	217.4311	30.8398	548.5138	-0.0592	0.0182	-0.0073	-0.0462	0.0165	0.9585
22.1471	-15.7996	376.8979	25.757	-133.3679	-36.8128	454.9785	37.9134	555.8311	-41.4417	205.5697	26.0591	517.0511	-0.0592	0.0182	-0.0073	-0.0462	0.0165	0.9585
22.1587	-18.7283	387.8509	30.927	-137.185	-43.8551	466.0612	39.1129	519.1135	-37.1085	192.26	21.4429	482.0547	-0.0592	0.0182	-0.0073	-0.0462	0.0165	0.9585
22.1703	-20.2255	399.3891	34.2177	-141.3708	-48.0821	477.4063	40.3285	479.2899	-33.0894	177.7359	17.0874	444.1723	-0.0592	0.0182	-0.0073	-0.0462	0.0165	0.9585
22.1819	-20.5755	413.0128	35.6251	-146.4553	-49.6449	490.7347	41.1377	436.9672	-29.2479	162.2221	13.0399	404.0678	-0.0592	0.0182	-0.0073	-0.0462	0.0165	0.9585
22.1934	-20.1113	429.3248	35.81	-152.5958	-49.4129	506.8344	41.1098	392.7167	-25.5112	145.9351	9.4135	362.3486	-0.0592	0.0182	-0.0073	-0.0462	0.0165	0.9585
22.205	-18.9342	448.5907	35.3113	-159.8272	-48.1052	525.9466	39.8144	347.2823	-21.8799	129.1529	6.3735	319.7775	-0.0592	0.0182	-0.0073	-0.0462	0.0165	0.9585
22.2166	-17.3388	471.0562	34.9553	-168.1573	-46.759	548.4345	37.0515	301.598	-18.4804	112.2268	4.118	277.2373	-0.0592	0.0182	-0.0073	-0.0462	0.0165	0.9585
22.2281	-15.519	496.7791	35.2369	-177.5633	-46.0412	574.3307	32.8159	256.8541	-15.4418	95.6034	2.7592	235.8312	-0.0592	0.0182	-0.0073	-0.0462	0.0165	0.9585
22.2397	-13.9066	525.6564	36.6202	-187.9638	-46.6167	603.5605	27.4771	214.2961	-12.868	79.7553	2.2547	196.6406	-0.0592	0.0182	-0.0073	-0.0462	0.0165	0.9585
22.2513	-12.7286	557.3729	39.2388	-199.24	-48.7209	635.7123	21.5844	175.0075	-10.7555	65.0981	2.3869	160.595	-0.0592	0.0182	-0.0073	-0.0462	0.0165	0.9585
22.2629	-12.0635	591.698	42.8594	-211.3055	-52.1375	670.5415	15.7949	139.7017	-9.0088	51.9157	2.8294	128.2511	-0.0592	0.0182	-0.0073	-0.0462	0.0165	0.9585
22.2744	-11.7276	628.0487	47.1412	-223.9709	-56.4184	707.3361	10.5424	108.7133	-7.5223	40.3482	3.3213	99.8968	-0.0592	0.0182	-0.0073	-0.0462	0.0165	0.9585
22.286	-11.5784	665.3484	51.5032	-236.8714	-60.8784	744.8953	6.1311	82.0677	-6.1797	30.4182	3.6492	75.5317	-0.0592	0.0182	-0.0073	-0.0462	0.0165	0.9585
22.2976	-11.4444	701.8661	55.6861	-249.4011	-65.1415	781.3165	2.637	59.6296	-4.9316	22.0771	3.7377	55.0583	-0.0592	0.0182	-0.0073	-0.0462	0.0165	0.9585
22.3091	-11.331	735.6248	59.3823	-260.8552	-68.8661	814.511	0.10816	41.1652	-3.7586	15.2385	3.5542	38.2352	-0.0592	0.0182	-0.0073	-0.0462	0.0165	0.9585
22.3207	-11.1764	764.7151	62.6237	-270.5363	-72.0479	842.4921	-1.5068	26.4917	-2.6885	9.8246	3.1426	24.9079	-0.0592	0.0182	-0.0073	-0.0462	0.0165	0.9585
22.3323	-11.02	787.6479	65.3355	-277.8998	-74.6252	863.8013	-2.2636	15.4181	-1.7547	5.7576	2.5551	14.8637	-0.0592	0.0182	-0.0073	-0.0462	0.0165	0.9585
22.3439	-10.8587	803.5207	67.5424	-282.6172	-76.6261	877.5623	-2.3856	7.7244	-0.99983	2.943	1.9076	7.8979	-0.0592	0.0182	-0.0073	-0.0462	0.0165	0.9585
22.3554	-10.7051	812.1441	69.1868	-284.6256	-78.001	883.7026	-2.1492	2.912	-0.45405	1.1931	1.3221	3.5356	-0.0592	0.0182	-0.0073	-0.0462	0.0165	0.9585
22.367	-10.4635	813.9702	70.212	-284.1062	-78.6718	882.7409	-1.7642	0.33815	-0.10276	0.2644	0.86262	1.215	-0.0592	0.0182	-0.0073	-0.0462	0.0165	0.9585
22.3786	-10.0717	809.9916	70.6364	-281.4342	-78.6376	875.775	-1.3445	-0.66668	0.099999	-0.090859	0.53324	0.32936	-0.0592	0.0182	-0.0073	-0.0462	0.0165	0.9585
22.3901	-9.4218	801.4712	70.4908	-277.0811	-77.91	864.1291	-0.97835	-0.66583	0.1922	-0.081944	0.32915	0.37565	-0.0592	0.0182	-0.0073	-0.0462	0.0165	0.9585
22.4017	-8.5535	789.7284	69.9822	-271.5276	-76.7143	849.2116	-0.68184	-0.1095	0.21794	0.12743	0.21552	0.935	-0.0592	0.0182	-0.0073	-0.0462	0.0165	0.9585
22.4133	-7.4792	775.987	69.252	-265.2287	-75.2176	832.2803	-0.47432	0.68508	0.20146	0.42245	0.1698	1.7264	-0.0592	0.0182	-0.0073	-0.0462	0.0165	0.9585
22.4249	-6.2311	761.384	68.5055	-258.6067	-73.6467	814.5004	-0.33151	1.5126	0.16476	0.72931	0.16007	2.5563	-0.0592	0.0182	-0.0073	-0.0462	0.0165	0.9585
22.4364	-4.7894	746.9073	67.8645	-252.0412	-72.1308	796.8182	-0.26076	2.2713	0.12266	1.0096	0.17053	3.3376	-0.0592	0.0182	-0.0073	-0.0462	0.0165	0.9585
22.448	-3.1633	733.4141	67.4534	-245.8654	-70.8034	780.0711	-0.23012	2.9111	0.079155	1.2454	0.19038	4.007	-0.0592	0.0182	-0.0073	-0.0462	0.0165	0.9585
22.4596	-1.358	721.5881	67.34	-240.3545	-69.7397	764.9003	-0.2468	3.4186	0.046008	1.4321	0.21093	4.5487	-0.0592	0.0182	-0.0073	-0.0462	0.0165	0.9585
